<mxfile host="app.diagrams.net" modified="2023-09-16T14:12:59.099Z" agent="Mozilla/5.0 (Windows NT 10.0; Win64; x64) AppleWebKit/537.36 (KHTML, like Gecko) Chrome/116.0.0.0 Safari/537.36" etag="D1xZYFbZrzTinn1jkuZn" version="21.7.5" type="device">
  <diagram name="Page-1" id="URlDknltxpipiywu0Q4J">
    <mxGraphModel dx="1050" dy="1754" grid="1" gridSize="10" guides="1" tooltips="1" connect="1" arrows="1" fold="1" page="1" pageScale="1" pageWidth="827" pageHeight="1169" math="0" shadow="0">
      <root>
        <mxCell id="0" />
        <mxCell id="1" parent="0" />
        <mxCell id="o6YqjatUUTi-p8Pt1zlv-4" style="edgeStyle=orthogonalEdgeStyle;rounded=0;orthogonalLoop=1;jettySize=auto;html=1;exitX=1;exitY=0.5;exitDx=0;exitDy=0;" edge="1" parent="1" source="o6YqjatUUTi-p8Pt1zlv-1" target="o6YqjatUUTi-p8Pt1zlv-3">
          <mxGeometry relative="1" as="geometry" />
        </mxCell>
        <mxCell id="o6YqjatUUTi-p8Pt1zlv-1" value="Gmail API" style="rounded=1;whiteSpace=wrap;html=1;" vertex="1" parent="1">
          <mxGeometry x="130" y="100" width="120" height="60" as="geometry" />
        </mxCell>
        <mxCell id="o6YqjatUUTi-p8Pt1zlv-7" style="edgeStyle=orthogonalEdgeStyle;rounded=0;orthogonalLoop=1;jettySize=auto;html=1;exitX=0.5;exitY=1;exitDx=0;exitDy=0;entryX=0.5;entryY=0;entryDx=0;entryDy=0;" edge="1" parent="1" source="o6YqjatUUTi-p8Pt1zlv-3" target="o6YqjatUUTi-p8Pt1zlv-8">
          <mxGeometry relative="1" as="geometry">
            <mxPoint x="400" y="259.9999999999999" as="targetPoint" />
          </mxGeometry>
        </mxCell>
        <mxCell id="o6YqjatUUTi-p8Pt1zlv-29" style="edgeStyle=orthogonalEdgeStyle;rounded=0;orthogonalLoop=1;jettySize=auto;html=1;exitX=0.5;exitY=1;exitDx=0;exitDy=0;entryX=1;entryY=0.5;entryDx=0;entryDy=0;dashed=1;dashPattern=1 4;" edge="1" parent="1" source="o6YqjatUUTi-p8Pt1zlv-3" target="o6YqjatUUTi-p8Pt1zlv-24">
          <mxGeometry relative="1" as="geometry">
            <Array as="points">
              <mxPoint x="645" y="200" />
              <mxPoint x="690" y="200" />
              <mxPoint x="690" y="628" />
            </Array>
          </mxGeometry>
        </mxCell>
        <mxCell id="o6YqjatUUTi-p8Pt1zlv-3" value="email_data_html (local)" style="shape=datastore;whiteSpace=wrap;html=1;" vertex="1" parent="1">
          <mxGeometry x="590" y="100" width="110" height="60" as="geometry" />
        </mxCell>
        <mxCell id="o6YqjatUUTi-p8Pt1zlv-5" value="daily scheduled extraction&lt;br&gt;@ 20:00" style="text;html=1;align=center;verticalAlign=middle;resizable=0;points=[];autosize=1;strokeColor=none;fillColor=none;" vertex="1" parent="1">
          <mxGeometry x="320" y="95" width="160" height="40" as="geometry" />
        </mxCell>
        <mxCell id="o6YqjatUUTi-p8Pt1zlv-6" value="Reset daily" style="text;html=1;align=center;verticalAlign=middle;resizable=0;points=[];autosize=1;strokeColor=#6c8ebf;fillColor=#dae8fc;" vertex="1" parent="1">
          <mxGeometry x="710" y="115" width="80" height="30" as="geometry" />
        </mxCell>
        <mxCell id="o6YqjatUUTi-p8Pt1zlv-10" value="" style="edgeStyle=orthogonalEdgeStyle;rounded=0;orthogonalLoop=1;jettySize=auto;html=1;" edge="1" parent="1" source="o6YqjatUUTi-p8Pt1zlv-8" target="o6YqjatUUTi-p8Pt1zlv-9">
          <mxGeometry relative="1" as="geometry" />
        </mxCell>
        <mxCell id="o6YqjatUUTi-p8Pt1zlv-8" value="Load and Embed" style="rounded=1;whiteSpace=wrap;html=1;" vertex="1" parent="1">
          <mxGeometry x="340" y="240" width="120" height="50" as="geometry" />
        </mxCell>
        <mxCell id="o6YqjatUUTi-p8Pt1zlv-18" style="edgeStyle=orthogonalEdgeStyle;rounded=0;orthogonalLoop=1;jettySize=auto;html=1;exitX=0;exitY=0.5;exitDx=0;exitDy=0;entryX=1;entryY=0.584;entryDx=0;entryDy=0;entryPerimeter=0;dashed=1;dashPattern=8 8;" edge="1" parent="1" source="o6YqjatUUTi-p8Pt1zlv-9" target="o6YqjatUUTi-p8Pt1zlv-14">
          <mxGeometry relative="1" as="geometry" />
        </mxCell>
        <mxCell id="o6YqjatUUTi-p8Pt1zlv-21" value="" style="edgeStyle=orthogonalEdgeStyle;rounded=0;orthogonalLoop=1;jettySize=auto;html=1;entryX=0.5;entryY=0;entryDx=0;entryDy=0;" edge="1" parent="1" source="o6YqjatUUTi-p8Pt1zlv-9" target="o6YqjatUUTi-p8Pt1zlv-26">
          <mxGeometry relative="1" as="geometry">
            <mxPoint x="400" y="480" as="targetPoint" />
          </mxGeometry>
        </mxCell>
        <mxCell id="o6YqjatUUTi-p8Pt1zlv-9" value="Store Embedding (Chroma DB)" style="whiteSpace=wrap;html=1;rounded=1;" vertex="1" parent="1">
          <mxGeometry x="340" y="367.5" width="120" height="45" as="geometry" />
        </mxCell>
        <mxCell id="o6YqjatUUTi-p8Pt1zlv-11" value="All data stored here:&lt;br&gt;only add newly arived data once" style="text;html=1;align=center;verticalAlign=middle;resizable=0;points=[];autosize=1;strokeColor=#6c8ebf;fillColor=#dae8fc;" vertex="1" parent="1">
          <mxGeometry x="470" y="350" width="190" height="40" as="geometry" />
        </mxCell>
        <mxCell id="o6YqjatUUTi-p8Pt1zlv-14" value="&lt;u&gt;Similarity Search + LLM Interface&lt;/u&gt;&lt;br&gt;(can be executed multiple times a day without influencing data)" style="shape=card;whiteSpace=wrap;html=1;" vertex="1" parent="1">
          <mxGeometry x="60" y="320" width="140" height="120" as="geometry" />
        </mxCell>
        <mxCell id="o6YqjatUUTi-p8Pt1zlv-25" value="" style="edgeStyle=orthogonalEdgeStyle;rounded=0;orthogonalLoop=1;jettySize=auto;html=1;exitX=0.5;exitY=1;exitDx=0;exitDy=0;" edge="1" parent="1" source="o6YqjatUUTi-p8Pt1zlv-26" target="o6YqjatUUTi-p8Pt1zlv-24">
          <mxGeometry relative="1" as="geometry">
            <mxPoint x="400" y="525" as="sourcePoint" />
          </mxGeometry>
        </mxCell>
        <mxCell id="o6YqjatUUTi-p8Pt1zlv-22" value="Contains metadata&lt;br&gt;&amp;gt; source: title with timestamp" style="text;html=1;align=center;verticalAlign=middle;resizable=0;points=[];autosize=1;strokeColor=#d79b00;fillColor=#ffe6cc;" vertex="1" parent="1">
          <mxGeometry x="470" y="400" width="180" height="40" as="geometry" />
        </mxCell>
        <mxCell id="o6YqjatUUTi-p8Pt1zlv-30" style="edgeStyle=orthogonalEdgeStyle;rounded=0;orthogonalLoop=1;jettySize=auto;html=1;exitX=0;exitY=0.5;exitDx=0;exitDy=0;entryX=0;entryY=0.5;entryDx=0;entryDy=0;" edge="1" parent="1" source="o6YqjatUUTi-p8Pt1zlv-24" target="o6YqjatUUTi-p8Pt1zlv-1">
          <mxGeometry relative="1" as="geometry">
            <Array as="points">
              <mxPoint x="30" y="628" />
              <mxPoint x="30" y="130" />
            </Array>
          </mxGeometry>
        </mxCell>
        <mxCell id="o6YqjatUUTi-p8Pt1zlv-24" value="Clear daily folder&amp;nbsp;&lt;br&gt;(@ 20:00 daily)" style="whiteSpace=wrap;html=1;rounded=1;" vertex="1" parent="1">
          <mxGeometry x="340" y="605" width="120" height="45" as="geometry" />
        </mxCell>
        <mxCell id="o6YqjatUUTi-p8Pt1zlv-26" value="Archive html email data&amp;nbsp;" style="shape=datastore;whiteSpace=wrap;html=1;" vertex="1" parent="1">
          <mxGeometry x="350" y="480" width="100" height="60" as="geometry" />
        </mxCell>
        <mxCell id="o6YqjatUUTi-p8Pt1zlv-32" style="edgeStyle=orthogonalEdgeStyle;rounded=0;orthogonalLoop=1;jettySize=auto;html=1;entryX=0.5;entryY=1;entryDx=0;entryDy=0;" edge="1" parent="1" source="o6YqjatUUTi-p8Pt1zlv-31" target="o6YqjatUUTi-p8Pt1zlv-24">
          <mxGeometry relative="1" as="geometry" />
        </mxCell>
        <mxCell id="o6YqjatUUTi-p8Pt1zlv-31" value="System Init" style="ellipse;whiteSpace=wrap;html=1;aspect=fixed;" vertex="1" parent="1">
          <mxGeometry x="360" y="720" width="80" height="80" as="geometry" />
        </mxCell>
        <mxCell id="o6YqjatUUTi-p8Pt1zlv-33" value="&lt;h1&gt;Total History Knowledge System&lt;/h1&gt;&lt;h2&gt;With timestamp metadata to query for recent events + add time dimension (causality)&lt;/h2&gt;" style="text;html=1;align=center;verticalAlign=middle;resizable=0;points=[];autosize=1;strokeColor=none;fillColor=none;" vertex="1" parent="1">
          <mxGeometry x="25" y="-90" width="750" height="110" as="geometry" />
        </mxCell>
        <mxCell id="o6YqjatUUTi-p8Pt1zlv-35" value="Clear Gmail folder" style="text;html=1;align=center;verticalAlign=middle;resizable=0;points=[];autosize=1;strokeColor=#6c8ebf;fillColor=#dae8fc;" vertex="1" parent="1">
          <mxGeometry x="80" y="640" width="120" height="30" as="geometry" />
        </mxCell>
      </root>
    </mxGraphModel>
  </diagram>
</mxfile>
